# xmcd
#
# Track frame offsets:
#	150
#	17771
#	32245
#	44469
#	59317
#	80390
#	91412
#	110010
#	130858
#	149633
#	171151
#	187724
#	204374
#	219822
#	239770
#	258970
#	279115
#	293586
#	314282
#
# Disc length: 4365 seconds
#
# Revision: 1
# Processed by: cddbd v1.5.2PL0 Copyright (c) Steve Scherf et al.
# Submitted via: audiograbber 1.83.01
#
DISCID=0c110b13
DTITLE=Al and Brenda Hooper - I Must Be A Baby Boomer
DYEAR=1900
DGENRE=
TTITLE0=Meet The Latest Member
TTITLE1=Baby You Ain´t Done Much Better
TTITLE2=Here I Go Making Belive Again
TTITLE3=Must Be A Baby Boomer
TTITLE4=Danny Boy
TTITLE5=Fire Foot Two
TTITLE6=Old Flames
TTITLE7=Working Man I Am
TTITLE8=I Woulden´t Jake A Million Dollars
TTITLE9=Mr Bojangles
TTITLE10=Look At Us
TTITLE11=Long For The Miza
TTITLE12=Always Be The Best Of Friends
TTITLE13=Daisy A Day
TTITLE14=Old Dogs And Children
TTITLE15=Farmers Long
TTITLE16=I Can´t Stop Loving You 
TTITLE17=Let Me Call You Sweetheart
TTITLE18=Til We Meet Again
EXTD=
EXTT0=
EXTT1=
EXTT2=
EXTT3=
EXTT4=
EXTT5=
EXTT6=
EXTT7=
EXTT8=
EXTT9=
EXTT10=
EXTT11=
EXTT12=
EXTT13=
EXTT14=
EXTT15=
EXTT16=
EXTT17=
EXTT18=
PLAYORDER=
